<svg xmlns="http://www.w3.org/2000/svg" width="22.726" height="22.612" viewBox="0 0 22.726 22.612">
  <g id="Group_165" data-name="Group 165" transform="translate(-134.274 -317.694)">
    <g id="edit" transform="translate(134.274 317.433)">
      <path id="Path_9" data-name="Path 9" d="M20.975,51.16a.566.566,0,0,0-.566.566v5.025a1.7,1.7,0,0,1-1.7,1.7H2.83a1.7,1.7,0,0,1-1.7-1.7V42a1.7,1.7,0,0,1,1.7-1.7H7.855a.566.566,0,1,0,0-1.132H2.83A2.833,2.833,0,0,0,0,42V56.751a2.833,2.833,0,0,0,2.83,2.83H18.711a2.833,2.833,0,0,0,2.83-2.83V51.726A.566.566,0,0,0,20.975,51.16Zm0,0" transform="translate(0 -36.709)" fill="#31103a"/>
      <path id="Path_10" data-name="Path 10" d="M123.383,1.007a2.547,2.547,0,0,0-3.6,0l-10.1,10.1a.566.566,0,0,0-.145.249l-1.328,4.794a.566.566,0,0,0,.7.7l4.794-1.328a.566.566,0,0,0,.249-.145l10.1-10.1a2.55,2.55,0,0,0,0-3.6ZM110.917,11.472l8.264-8.264,2.665,2.665-8.264,8.264Zm-.532,1.068,2.129,2.13-2.945.816Zm12.863-8.068-.6.6-2.665-2.665.6-.6a1.415,1.415,0,0,1,2,0l.664.664A1.417,1.417,0,0,1,123.247,4.473Zm0,0" transform="translate(-102.066)" fill="#31103a"/>
    </g>
  </g>
</svg>
