<?xml version="1.0" encoding="utf-8"?>
<!-- Generator: Adobe Illustrator 23.0.3, SVG Export Plug-In . SVG Version: 6.00 Build 0)  -->
<svg version="1.1" id="logosvg.com" xmlns="http://www.w3.org/2000/svg" xmlns:xlink="http://www.w3.org/1999/xlink" x="0px"
	 y="0px" viewBox="0 0 400 300" style="enable-background:new 0 0 400 300;" xml:space="preserve">
<style type="text/css">
	.st0{fill:#F15935;}
</style>
<path id="red" class="st0" d="M132.8,102.3c-14.4,0-23.9,7.6-25.3,18.9c-0.3,2.6-0.6,5.2-1,7.9h187.3c0,0,0.4-2.8,0.6-5
	c1.4-11.4-3.4-21.8-21.1-21.8v0C273.4,102.3,140.4,102.3,132.8,102.3z M18.4,102.3l-3.3,26.8h85l3.3-26.8L18.4,102.3L18.4,102.3
	L18.4,102.3z M303.6,102.3l-3.3,26.8h92.1c0,0,0.1-1,0.5-4.1c2.2-17.6-9.1-22.7-20-22.7H303.6z M299.1,139.3l-7.2,58.5l31.8,0
	l7.2-58.4L299.1,139.3L299.1,139.3L299.1,139.3z M359.5,139.3l-7.2,58.5l31.8,0l7.2-58.4L359.5,139.3L359.5,139.3L359.5,139.3z
	 M13.9,139.3l-7.2,58.4h85l3.1-25.4l-53.2,0l1.3-10.9h53.2l2.7-22.2L13.9,139.3C13.9,139.3,13.9,139.3,13.9,139.3z M105.3,139.3
	c-2.3,15.3,5.3,22.1,16.1,22.1c5.9,0,43,0,43,0l-1.3,10.9l-61.8,0l-3.1,25.4c0,0,67.3,0,70,0c2.3-0.2,18-0.6,23.4-13.5
	c1.7-4.2,3.3-19.2,3.7-22.3c2.5-18.3-10.2-22.6-20.1-22.6C169.6,139.3,116.1,139.3,105.3,139.3z M204.2,139.3l-7.2,58.4h31.8
	l4.5-36.3h39.9c11.3,0,17.4-6.1,18.5-14.3c0.4-2.6,0.7-5.3,1-7.9L204.2,139.3C204.2,139.3,204.2,139.3,204.2,139.3z"/>
</svg>
