<?xml version="1.0" encoding="utf-8"?>
<!-- Generator: Adobe Illustrator 23.0.3, SVG Export Plug-In . SVG Version: 6.00 Build 0)  -->
<svg version="1.1" id="logosvgcom" xmlns:sketch="http://www.bohemiancoding.com/sketch/ns"
	 xmlns="http://www.w3.org/2000/svg" xmlns:xlink="http://www.w3.org/1999/xlink" x="0px" y="0px" viewBox="0 0 400 300"
	 style="enable-background:new 0 0 400 300;" xml:space="preserve">
<style type="text/css">
	.st0{fill-rule:evenodd;clip-rule:evenodd;fill:#F15935;}
	.st1{fill-rule:evenodd;clip-rule:evenodd;fill:#F15935;}
	.st2{fill-rule:evenodd;clip-rule:evenodd;fill:#F15935;}
	.st3{fill-rule:evenodd;clip-rule:evenodd;fill:#F15935;}
</style>
<path id="text" class="st0" d="M221.2,128.4c-11,0-17.8,8.7-17.8,22.7c0,14,6.8,22.7,17.8,22.7c4.1,0,8-1.2,11.1-3.4l0.2-0.1v-15.8
	h-15.8V149h22.2v23.5c-4.7,4.6-10.8,7-17.7,7c-14.7,0-24.2-11.1-24.2-28.3s9.5-28.3,24.2-28.3c7.2,0,13.2,2.6,17.5,7.6l-4.3,3.6
	C231.1,130.2,226.7,128.4,221.2,128.4L221.2,128.4z M345.4,178.6h-5l-1.7-4.6l-0.4,0.4c-0.1,0-5.6,5-12.6,5
	c-7.1,0-12.2-4.7-12.2-11.2c0-9.4,8.1-11.4,14.9-11.4c5.3,0,10,1.2,10.1,1.2l0.4,0.1v-1.1c0-5.1-3.2-7.7-9.5-7.7
	c-3.8,0-7.8,0.9-11.7,2.7l-2.6-4.5c3.4-2.2,8.5-4.7,14.2-4.7c10,0,15.9,5.4,15.9,14.5V178.6z M331.6,161.7c-7.6,0-11.6,2.2-11.6,6.4
	c0,2.9,2.2,4.7,5.7,4.7c5.8,0,11-2.4,13.1-3.8l0.2-0.1v-6.6l-0.3-0.1C338.6,162.3,335.3,161.7,331.6,161.7L331.6,161.7z M309.9,173
	v5.6h-21.5v-53.1h6.5V173H309.9z M367.7,179.5c-4.2,0-8.8-0.6-13.7-1.7v-52.3h6.5v20.1l0.6-0.4c0,0,3.6-2.3,8.6-2.3
	c1,0,2,0.1,2.9,0.3c8.1,1.7,13,8.2,13,17.6C385.6,171.8,378.2,179.5,367.7,179.5L367.7,179.5z M368.4,149.2c-2.6,0-5.3,0.9-7.8,2.5
	l-0.2,0.1v21.4l0.3,0c2.4,0.4,4.7,0.5,6.9,0.5c6.7,0,11.4-5.4,11.4-13.1C379.1,153.4,375.2,149.2,368.4,149.2L368.4,149.2z
	 M279.8,143.4v5.6H269v16.4c0,2,0.8,3.9,2.2,5.3c1.4,1.4,3.3,2.2,5.3,2.2h3.2v5.6h-3.2c-7.7,0-14-6.3-14-14v-39.1h6.5v17.9H279.8z
	 M247.5,129.1h6.5v6.5h-6.5V129.1z M247.5,143.4h6.5v35.2h-6.5V143.4z"/>
<g id="logo">
	<path id="logo_3_" class="st1" d="M90.7,220.5L63,135.1H24.2L90.7,220.5z M90.7,220.5l27.7-85.3h38.9L90.7,220.5z"/>
	<path id="logo_2_" class="st2" d="M24.2,135.1L24.2,135.1l-8.4,25.9c-0.8,2.4,0.1,5,2.1,6.4l72.9,53L24.2,135.1z M157.3,135.1
		L157.3,135.1l8.4,25.9c0.8,2.4-0.1,5-2.1,6.4l-72.9,53L157.3,135.1z"/>
	<path id="logo_1_" class="st3" d="M90.7,220.5L63,135.1H24.2l16.7-51.4c0.9-2.6,4.6-2.6,5.5,0L63,135.1h55.5L90.7,220.5z
		 M140.6,83.7c-0.9-2.6-4.6-2.6-5.5,0l-16.7,51.4h38.9L140.6,83.7z"/>
</g>
</svg>
