<svg id="qr-code" xmlns="http://www.w3.org/2000/svg" width="22.584" height="22.612" viewBox="0 0 22.584 22.612">
  <g id="Group_81" data-name="Group 81">
    <g id="Group_80" data-name="Group 80">
      <path id="Path_31" data-name="Path 31" d="M7.057,0H0V7.057H7.057ZM5.646,5.646H1.411V1.411H5.646Z" fill="#31103a"/>
      <rect id="Rectangle_158" data-name="Rectangle 158" width="1.467" height="1.467" transform="translate(2.934 2.072)" fill="#31103a"/>
      <path id="Path_32" data-name="Path 32" d="M352,0V7.057h7.057V0Zm5.646,5.646h-4.234V1.411h4.234Z" transform="translate(-336.474)" fill="#31103a"/>
      <rect id="Rectangle_159" data-name="Rectangle 159" width="1.467" height="1.467" transform="translate(19.073 2.072)" fill="#31103a"/>
      <path id="Path_33" data-name="Path 33" d="M0,359.057H7.057V352H0Zm1.411-5.646H5.646v4.234H1.411Z" transform="translate(0 -336.474)" fill="#31103a"/>
      <rect id="Rectangle_160" data-name="Rectangle 160" width="1.467" height="1.467" transform="translate(2.934 18.21)" fill="#31103a"/>
      <rect id="Rectangle_161" data-name="Rectangle 161" width="2.934" height="1.467" transform="translate(11.737 0.605)" fill="#31103a"/>
      <path id="Path_34" data-name="Path 34" d="M194.823,36.234h1.411V34.823h1.411V33.411h-4.234V32H192v2.823h2.823Z" transform="translate(-183.531 -30.589)" fill="#31103a"/>
      <rect id="Rectangle_162" data-name="Rectangle 162" width="1.467" height="1.467" transform="translate(8.803 5.006)" fill="#31103a"/>
      <path id="Path_35" data-name="Path 35" d="M197.646,160h-1.411v1.411H192v1.411h5.646Z" transform="translate(-183.531 -152.943)" fill="#31103a"/>
      <path id="Path_36" data-name="Path 36" d="M1.411,196.234H2.823v-1.411H1.411V192H0v5.646H1.411Z" transform="translate(0 -183.531)" fill="#31103a"/>
      <rect id="Rectangle_163" data-name="Rectangle 163" width="1.467" height="1.467" transform="translate(2.934 7.94)" fill="#31103a"/>
      <path id="Path_37" data-name="Path 37" d="M100.234,197.646h2.823v-1.411h-1.411v-1.411H98.823V192H97.412v2.823H96v2.823h1.411v-1.411h2.823Z" transform="translate(-91.766 -183.531)" fill="#31103a"/>
      <rect id="Rectangle_164" data-name="Rectangle 164" width="1.467" height="2.934" transform="translate(13.204 10.875)" fill="#31103a"/>
      <path id="Path_38" data-name="Path 38" d="M196.234,352H192v1.411h2.823v4.234H192v1.411h4.234v-1.411h2.823v-1.411h-2.823Z" transform="translate(-183.531 -336.474)" fill="#31103a"/>
      <rect id="Rectangle_165" data-name="Rectangle 165" width="1.467" height="1.467" transform="translate(8.803 18.21)" fill="#31103a"/>
      <rect id="Rectangle_166" data-name="Rectangle 166" width="1.467" height="2.934" transform="translate(14.671 15.276)" fill="#31103a"/>
      <path id="Path_39" data-name="Path 39" d="M388.234,416H384v4.234h1.411v-2.823h2.823Z" transform="translate(-367.062 -397.651)" fill="#31103a"/>
      <rect id="Rectangle_167" data-name="Rectangle 167" width="1.467" height="1.467" transform="translate(20.54 21.144)" fill="#31103a"/>
      <rect id="Rectangle_168" data-name="Rectangle 168" width="1.467" height="1.467" transform="translate(20.54 15.276)" fill="#31103a"/>
      <path id="Path_40" data-name="Path 40" d="M353.411,292.234h1.411V288H352v1.411h1.411Z" transform="translate(-336.474 -275.297)" fill="#31103a"/>
      <path id="Path_41" data-name="Path 41" d="M356.234,193.412h-1.412V192h-1.411v1.411H352v1.411h5.646v-1.411h1.411V192h-2.823Z" transform="translate(-336.474 -183.531)" fill="#31103a"/>
      <rect id="Rectangle_169" data-name="Rectangle 169" width="1.467" height="1.467" transform="translate(20.54 12.342)" fill="#31103a"/>
    </g>
  </g>
</svg>
