<svg xmlns="http://www.w3.org/2000/svg" width="25.531" height="25.496" viewBox="0 0 25.531 25.496">
  <g id="guarantee" transform="translate(1.261 1.005)">
    <g id="Group_21" data-name="Group 21" transform="translate(0 0.256)">
      <g id="Path_8" data-name="Path 8" transform="translate(0 -0.256)" fill="none">
        <path d="M23,11.756,21.032,9.192l.44-3.186-3-1.191-1.191-3-3.186.44L11.5.256,8.936,2.224,5.75,1.784l-1.191,3-3,1.191.44,3.186L0,11.756,1.968,14.32l-.44,3.186,3,1.191,1.191,3,3.186-.44,2.564,1.968,2.564-1.968,3.186.44,1.191-3,3-1.217-.44-3.186Zm-12.432,3.73-3.833-3.16.829-1.01,2.849,2.331,4.869-5.62.984.855Z" stroke="none"/>
        <path d="M 11.47410011291504 23.2300968170166 L 14.03829002380371 21.26162719726562 L 17.22410011291504 21.70194816589355 L 18.41554069519043 18.69743728637695 L 21.4200496673584 17.4800968170166 L 20.9797306060791 14.29428768157959 L 23 11.75599765777588 L 21.03153038024902 9.191807746887207 L 21.47184944152832 6.005997657775879 L 18.46734046936035 4.814557552337646 L 17.27589988708496 1.810057759284973 L 14.09008979797363 2.250367641448975 L 11.5 0.2559977173805237 L 8.935810089111328 2.224467754364014 L 5.75 1.784157752990723 L 4.558559894561768 4.788657665252686 L 1.554049968719482 5.980097770690918 L 1.994369983673096 9.165907859802246 L -1.77635683940025e-15 11.75599765777588 L 1.968469977378845 14.32018756866455 L 1.528149962425232 17.5059986114502 L 4.532660007476807 18.69743728637695 L 5.724100112915039 21.70194816589355 L 8.909910202026367 21.26162719726562 L 11.47410011291504 23.2300968170166 M 7.56305980682373 11.31568813323975 L 10.41215991973877 13.64676761627197 L 15.28153038024902 8.026268005371094 L 16.26576995849609 8.880997657775879 L 10.56756973266602 15.48572731018066 L 6.734230041503906 12.32581806182861 L 7.56305980682373 11.31568813323975 M 11.47410011291504 24.49078750610352 L 10.86515998840332 24.02331733703613 L 8.632628440856934 22.3094539642334 L 5.861010074615479 22.69252777099609 L 5.083759784698486 22.79995727539062 L 4.794519901275635 22.0705680847168 L 3.762364625930786 19.46773338317871 L 1.15953004360199 18.43557739257812 L 0.4301399886608124 18.14633750915527 L 0.5375699996948242 17.36908721923828 L 0.9206433892250061 14.59746932983398 L -0.7932199835777283 12.3649377822876 L -1.261389970779419 11.75507736206055 L -0.7923300266265869 11.14590740203857 L 0.9464268088340759 8.887783050537109 L 0.5634700059890747 6.117007732391357 L 0.4560399949550629 5.339757919311523 L 1.18543004989624 5.050517559051514 L 3.788260459899902 4.018363952636719 L 4.820419788360596 1.415527701377869 L 5.109660148620605 0.6861476898193359 L 5.886909961700439 0.7935777306556702 L 8.658527374267578 1.176642179489136 L 10.89105987548828 -0.5372222661972046 L 11.50092029571533 -1.00539231300354 L 12.1100902557373 -0.5363323092460632 L 14.3682165145874 1.202425599098206 L 17.13899040222168 0.8194777369499207 L 17.91624069213867 0.7120476961135864 L 18.20548057556152 1.441427707672119 L 19.23764038085938 4.04426383972168 L 21.84046936035156 5.076417922973633 L 22.56986045837402 5.365657806396484 L 22.46242904663086 6.142907619476318 L 22.0793571472168 8.914525985717773 L 23.79322052001953 11.14705753326416 L 24.26922988891602 11.76711750030518 L 23.78241920471191 12.37874794006348 L 22.02897071838379 14.58180141448975 L 22.41062927246094 17.34318733215332 L 22.51724052429199 18.1145076751709 L 21.79557037353516 18.40690803527832 L 19.18745994567871 19.46363830566406 L 18.1536808013916 22.0705680847168 L 17.86444091796875 22.79995727539062 L 17.08719062805176 22.69252777099609 L 14.31557178497314 22.3094539642334 L 12.08304023742676 24.02331733703613 L 11.47410011291504 24.49078750610352 Z" stroke="none" fill="#31103a"/>
      </g>
    </g>
  </g>
</svg>
